<?xml version="1.0" standalone="no"?>
<!DOCTYPE svg PUBLIC "-//W3C//DTD SVG 20010904//EN"
 "http://www.w3.org/TR/2001/REC-SVG-20010904/DTD/svg10.dtd">
<svg version="1.0" xmlns="http://www.w3.org/2000/svg"
 width="1162.000000pt" height="1280.000000pt" viewBox="0 0 1162.000000 1280.000000"
 preserveAspectRatio="xMidYMid meet">
<metadata>
Created by potrace 1.15, written by Peter Selinger 2001-2017
</metadata>
<g transform="translate(0.000000,1280.000000) scale(0.100000,-0.100000)"
fill="#000000" stroke="none">
<path d="M5410 11789 c-1220 -70 -2214 -397 -3080 -1013 -234 -166 -520 -433
-678 -634 -342 -432 -533 -895 -629 -1522 -26 -168 -25 -759 1 -945 121 -875
444 -1589 993 -2190 445 -487 935 -779 1563 -929 253 -60 339 -70 895 -105
122 -8 124 -8 45 -10 l-85 -2 70 -37 c121 -64 215 -174 244 -287 32 -122 -16
-320 -108 -441 -9 -11 18 14 59 55 82 84 72 70 -39 -56 -40 -46 -78 -80 -84
-76 -5 3 -7 2 -4 -4 9 -15 -44 -74 -187 -205 -148 -136 -219 -192 -424 -332
-79 -54 -186 -132 -239 -173 -56 -43 -118 -83 -151 -95 -125 -46 -211 -124
-268 -243 -135 -282 29 -606 340 -672 66 -14 161 -12 202 4 11 4 14 -5 14 -44
0 -266 257 -497 522 -469 60 6 65 5 222 -65 462 -206 865 -313 1106 -294 341
26 571 125 1000 431 1216 867 2408 2273 3159 3727 622 1203 860 2376 701 3456
-152 1030 -715 1849 -1640 2386 -432 251 -999 474 -1550 610 -582 143 -1338
210 -1970 174z m975 -763 c583 -62 1030 -167 1498 -352 411 -163 756 -352
1007 -553 125 -100 363 -339 356 -358 -3 -8 -2 -12 3 -8 13 8 74 -72 65 -86
-4 -7 -3 -9 3 -6 14 9 66 -60 57 -75 -4 -6 -3 -8 4 -4 14 8 106 -139 96 -155
-4 -8 -3 -9 4 -5 14 8 106 -171 163 -318 146 -373 212 -835 188 -1329 -48
-1017 -436 -2050 -1207 -3208 -569 -855 -1162 -1534 -1862 -2130 -241 -206
-577 -462 -606 -462 -7 0 -11 -4 -9 -8 8 -12 -275 -179 -302 -179 -4 0 31 22
79 48 123 67 148 87 78 60 -182 -68 -385 -98 -540 -79 -52 6 -106 14 -120 18
-14 3 -23 3 -20 0 3 -3 53 -19 110 -36 58 -16 98 -30 90 -30 -18 -1 -191 48
-275 78 -32 11 -61 21 -63 21 -2 0 0 4 3 10 3 5 0 7 -8 4 -18 -7 -149 45 -141
57 3 5 -1 6 -9 3 -8 -3 -71 20 -140 52 -104 47 -127 62 -139 88 -9 17 -37 56
-64 86 -38 44 -41 48 -10 20 21 -19 52 -57 69 -84 26 -40 44 -54 95 -77 79
-36 88 -36 37 -3 -83 55 -155 145 -184 229 -38 108 -3 307 74 420 11 17 20 33
20 37 0 4 62 65 137 135 246 230 419 436 601 714 395 603 498 1065 310 1386
-48 82 -141 166 -234 212 -177 87 -306 98 -719 61 -401 -35 -715 -21 -1050 47
-196 40 -426 115 -414 135 4 7 2 8 -5 4 -15 -9 -53 3 -46 15 3 5 -1 6 -9 3
-29 -11 -342 168 -329 188 3 7 1 8 -5 4 -13 -8 -74 33 -66 45 2 4 -1 11 -7 15
-8 4 -9 3 -5 -4 13 -21 -5 -13 -50 24 -24 20 -41 41 -37 47 4 6 1 7 -6 2 -15
-9 -103 73 -94 88 3 6 1 7 -4 4 -10 -6 -131 111 -212 206 -254 298 -477 703
-601 1092 -92 289 -137 536 -150 827 -17 383 7 648 84 930 54 198 133 398 148
376 7 -10 8 -8 4 5 -8 24 61 160 76 151 7 -4 8 -3 4 4 -9 14 12 55 24 47 5 -3
12 0 16 6 4 8 3 9 -4 5 -15 -9 -15 -1 -1 25 5 11 15 16 21 13 7 -4 8 -3 4 5
-9 15 32 73 46 65 7 -4 8 -2 4 5 -9 14 12 43 25 35 5 -3 6 1 3 9 -5 15 11 31
31 32 6 1 9 7 7 14 -4 18 107 143 120 134 6 -3 8 -1 5 4 -4 6 35 51 86 100
237 229 557 443 942 629 589 284 1219 439 1980 488 151 9 827 -3 970 -18z
m-1565 -7169 c0 -2 -10 -12 -22 -23 l-23 -19 19 23 c18 21 26 27 26 19z m-65
-1173 c-61 -51 -88 -65 -40 -21 28 25 55 46 60 46 6 0 -3 -11 -20 -25z m-95
-68 c0 -2 -8 -10 -17 -17 -16 -13 -17 -12 -4 4 13 16 21 21 21 13z m1160 -836
c-8 -5 -19 -10 -25 -10 -5 0 -3 5 5 10 8 5 20 10 25 10 6 0 3 -5 -5 -10z
m-237 -17 c-7 -2 -21 -2 -30 0 -10 3 -4 5 12 5 17 0 24 -2 18 -5z m124 -10
c-20 -2 -52 -2 -70 0 -17 2 0 4 38 4 39 0 53 -2 32 -4z"/>
<path d="M5600 9739 c-248 -18 -456 -112 -648 -293 -178 -169 -294 -364 -359
-606 -33 -125 -45 -360 -33 -640 13 -291 44 -446 127 -645 43 -103 46 -115 44
-190 -3 -88 17 -193 48 -253 82 -161 249 -262 431 -262 l79 0 -6 -52 c-6 -67
17 -169 58 -250 100 -197 358 -304 561 -232 37 13 60 13 168 3 150 -15 343 -1
460 32 423 119 723 497 771 974 48 470 -178 1276 -496 1770 -242 376 -607 617
-970 641 -44 2 -93 6 -110 7 -16 2 -73 0 -125 -4z m317 -1040 c61 -25 80 -35
133 -70 64 -43 105 -81 146 -135 16 -21 37 -48 47 -58 9 -11 17 -26 17 -33 0
-7 3 -13 8 -13 4 0 13 -14 21 -31 7 -16 15 -28 17 -26 5 5 -32 99 -62 159 -14
27 -24 52 -21 54 9 9 110 -228 164 -381 30 -88 103 -372 102 -399 0 -12 -12
26 -25 83 -13 57 -25 105 -27 107 -1 1 0 -55 2 -124 6 -214 -40 -354 -153
-469 -63 -63 -188 -128 -266 -138 -47 -7 -52 -9 -36 -19 57 -34 52 -40 -9 -10
-81 40 -167 58 -244 52 l-53 -5 6 39 c22 135 -75 345 -198 429 -57 39 -124
226 -131 369 l-4 75 9 -75 c5 -41 18 -102 29 -135 12 -33 19 -49 16 -35 -21
110 -28 256 -16 343 31 219 114 356 257 427 52 26 70 29 151 30 51 0 105 -5
120 -11z m-570 -496 c-2 -27 -3 -5 -3 47 0 52 1 74 3 48 2 -27 2 -69 0 -95z
m1150 -495 c-3 -7 -5 -2 -5 12 0 14 2 19 5 13 2 -7 2 -19 0 -25z m10 -70 c-3
-7 -5 -2 -5 12 0 14 2 19 5 13 2 -7 2 -19 0 -25z m10 -60 c-3 -8 -6 -5 -6 6
-1 11 2 17 5 13 3 -3 4 -12 1 -19z m-442 -438 c10 -11 16 -20 13 -20 -3 0 -13
9 -23 20 -10 11 -16 20 -13 20 3 0 13 -9 23 -20z"/>
<path d="M6310 8315 c0 -5 5 -17 10 -25 5 -8 10 -10 10 -5 0 6 -5 17 -10 25
-5 8 -10 11 -10 5z"/>
<path d="M6330 8265 c0 -5 5 -17 10 -25 5 -8 10 -10 10 -5 0 6 -5 17 -10 25
-5 8 -10 11 -10 5z"/>
<path d="M6351 8210 c0 -8 4 -22 9 -30 12 -18 12 -2 0 25 -6 13 -9 15 -9 5z"/>
<path d="M6391 8090 c0 -8 4 -24 9 -35 5 -13 9 -14 9 -5 0 8 -4 24 -9 35 -5
13 -9 14 -9 5z"/>
<path d="M6421 7984 c0 -11 3 -14 6 -6 3 7 2 16 -1 19 -3 4 -6 -2 -5 -13z"/>
<path d="M5410 7865 c0 -5 5 -17 10 -25 5 -8 10 -10 10 -5 0 6 -5 17 -10 25
-5 8 -10 11 -10 5z"/>
<path d="M5690 7262 c0 -4 18 -6 40 -4 22 2 40 6 40 8 0 2 -18 4 -40 4 -22 0
-40 -3 -40 -8z"/>
<path d="M2056 9343 c-6 -14 -5 -15 5 -6 7 7 10 15 7 18 -3 3 -9 -2 -12 -12z"/>
<path d="M1802 8430 c0 -14 2 -19 5 -12 2 6 2 18 0 25 -3 6 -5 1 -5 -13z"/>
<path d="M6080 1939 c-22 -18 -22 -19 -3 -10 12 6 25 16 28 21 9 15 3 12 -25
-11z"/>
<path d="M5220 1870 c8 -5 20 -10 25 -10 6 0 3 5 -5 10 -8 5 -19 10 -25 10 -5
0 -3 -5 5 -10z"/>
<path d="M5280 1850 c8 -5 20 -10 25 -10 6 0 3 5 -5 10 -8 5 -19 10 -25 10 -5
0 -3 -5 5 -10z"/>
</g>
</svg>
